<svg xmlns="http://www.w3.org/2000/svg" xmlns:xlink="http://www.w3.org/1999/xlink" class="hide"><symbol id="close" viewBox="0 0 16 16"><g>
<polygon fill="#444444" points="12.2,0.9 8,5.2 3.8,0.9 0.9,3.8 5.2,8 0.9,12.2 3.8,15.1 8,10.8 12.2,15.1 15.1,12.2 10.8,8 
	15.1,3.8 "/>
</g></symbol><symbol id="menu-bold" viewBox="0 0 48 48">
  <g>
    <path d="M46 20H2c-.6 0-1 .4-1 1v6c0 .6.4 1 1 1h44c.6 0 1-.4 1-1v-6c0-.6-.4-1-1-1z" data-color="color-2"/>
    <path d="M46 4H2c-.6 0-1 .4-1 1v6c0 .6.4 1 1 1h44c.6 0 1-.4 1-1V5c0-.6-.4-1-1-1zm0 32H2c-.6 0-1 .4-1 1v6c0 .6.4 1 1 1h44c.6 0 1-.4 1-1v-6c0-.6-.4-1-1-1z"/>
  </g>
</symbol><symbol id="svg">
  <symbol id="menu-bold" viewBox="0 0 48 48">
    <g>
      <path d="M46 20H2c-.6 0-1 .4-1 1v6c0 .6.4 1 1 1h44c.6 0 1-.4 1-1v-6c0-.6-.4-1-1-1z" data-color="color-2"/>
      <path d="M46 4H2c-.6 0-1 .4-1 1v6c0 .6.4 1 1 1h44c.6 0 1-.4 1-1V5c0-.6-.4-1-1-1zm0 32H2c-.6 0-1 .4-1 1v6c0 .6.4 1 1 1h44c.6 0 1-.4 1-1v-6c0-.6-.4-1-1-1z"/>
    </g>
  </symbol>
</symbol></svg>