<svg xmlns="http://www.w3.org/2000/svg" class="nc-icon glyph" viewBox="0 0 32 32">
  <g fill="#444">
    <path d="M32 14h-2v-1c0-6.065-4.935-11-11-11h-1V0h1c7.168 0 13 5.832 13 13v1z" data-color="color-2"/>
    <path d="M26 14h-2v-1c0-2.757-2.243-5-5-5h-1V6h1c3.86 0 7 3.14 7 7v1z" data-color="color-2"/>
    <path d="M25.175 32C11.271 32 0 20.729 0 6.825l4.528-4.528c.396-.396 1.038-.396 1.434 0l5.909 5.909c.396.396.396 1.038 0 1.434l-4.528 4.528 10.49 10.49 4.528-4.528c.396-.396 1.038-.396 1.434 0l5.909 5.909c.396.396.396 1.038 0 1.434L25.175 32z"/>
  </g>
</svg>